<svg width="85" height="85" viewBox="0 0 85 85" fill="none" xmlns="http://www.w3.org/2000/svg">
<path d="M0 10.625C0 7.80707 1.11942 5.10456 3.11199 3.11199C5.10456 1.11942 7.80707 0 10.625 0L74.375 0C77.1929 0 79.8954 1.11942 81.888 3.11199C83.8806 5.10456 85 7.80707 85 10.625V53.125C85 55.9429 83.8806 58.6454 81.888 60.638C79.8954 62.6306 77.1929 63.75 74.375 63.75H61.0938C60.269 63.75 59.4556 63.942 58.7179 64.3109C57.9803 64.6797 57.3386 65.2152 56.8438 65.875L46.75 79.3316C46.2552 79.9913 45.6135 80.5269 44.8758 80.8957C44.1381 81.2645 43.3247 81.4566 42.5 81.4566C41.6753 81.4566 40.8618 81.2645 40.1242 80.8957C39.3865 80.5269 38.7448 79.9913 38.25 79.3316L28.1563 65.875C27.6614 65.2152 27.0197 64.6797 26.2821 64.3109C25.5444 63.942 24.731 63.75 23.9062 63.75H10.625C7.80707 63.75 5.10456 62.6306 3.11199 60.638C1.11942 58.6454 0 55.9429 0 53.125V10.625ZM38.2181 25.3194C37.8679 24.7967 37.4637 24.3124 37.0122 23.8744C36.3022 23.1432 35.4557 22.5584 34.5206 22.1531L34.4781 22.1319C33.22 21.5477 31.849 21.2467 30.4619 21.25C25.3725 21.25 21.25 25.2131 21.25 30.1059C21.25 34.9934 25.3725 38.9566 30.4619 38.9566C32.2841 38.9566 33.9787 38.4519 35.4078 37.5753C34.68 39.6419 33.3359 41.8466 31.1047 44.0566C30.8945 44.2617 30.7286 44.5077 30.6171 44.7794C30.5056 45.0511 30.4509 45.3427 30.4563 45.6364C30.4618 45.93 30.5273 46.2194 30.6489 46.4868C30.7705 46.7541 30.9455 46.9938 31.1631 47.1909C32.0822 48.0409 33.5378 48.0144 34.425 47.1378C41.5119 40.0775 41.7031 32.4859 39.4241 27.4497C39.0893 26.7053 38.6856 25.9938 38.2181 25.3247V25.3194ZM58.4375 37.5753C57.715 39.6419 56.3656 41.8466 54.1344 44.0566C53.9245 44.2621 53.759 44.5083 53.6479 44.7802C53.5369 45.0521 53.4827 45.3439 53.4886 45.6375C53.4946 45.9312 53.5606 46.2205 53.6827 46.4876C53.8047 46.7548 53.9801 46.9941 54.1981 47.1909C55.1119 48.0409 56.5675 48.0144 57.4547 47.1378C64.5416 40.0775 64.7328 32.4859 62.4591 27.4497C62.1225 26.7051 61.7169 25.9937 61.2478 25.3247C60.898 24.8002 60.4938 24.314 60.0419 23.8744C59.332 23.1431 58.4855 22.5583 57.5503 22.1531L57.5078 22.1319C56.2513 21.5485 54.8822 21.2474 53.4969 21.25C48.4128 21.25 44.285 25.2131 44.285 30.1059C44.285 34.9934 48.4128 38.9566 53.4969 38.9566C55.3191 38.9566 57.0138 38.4519 58.4428 37.5753H58.4375Z" fill="#716040"/>
</svg>
